<svg width="45" height="81" fill="none" xmlns="http://www.w3.org/2000/svg"><path d="M44.94 21.61C44.94 9.722 34.87 0 22.495 0S0 9.674 0 21.61v37.78C0 71.278 10.07 81 22.495 81 34.87 81 44.99 71.326 44.99 59.39c.15-4.09-1.453-7.989-4.409-10.925l-8.316-7.99 8.367-8.037c2.956-3.032 4.408-6.834 4.308-10.828zm-40.932.433c0-9.337 7.315-17.423 17.034-18.193 4.76-.337 9.118 1.06 12.575 3.562a16.038 16.038 0 00-3.757-.433c-8.217 0-15.23 5.92-15.982 13.524-.05.385-.05.77-.05 1.203-.05 3.369 1.252 6.738 3.607 9.481l-3.106 2.984-9.77 9.385c-.2.193-.35.385-.5.578V22.043h-.051zm33.668 29.07c2.555 2.502 3.707 5.967 3.156 9.48-.802 5.391-5.912 9.482-11.874 9.482-4.359 0-8.266-2.31-9.97-5.92-1.954-4.139-1.503-8.615 1.152-11.936l3.858 3.706c1.704 1.685 2.806 3.802 3.156 6.112.15.963.952 1.685 1.954 1.685 1.203 0 2.155-1.01 2.005-2.118-.451-3.128-1.954-6.016-4.31-8.326l-4.007-3.85 6.513-6.257 8.367 7.941zm-9.67-12.08l-9.82 9.432c-4.609 4.572-5.711 11.166-2.855 17.278 2.355 4.958 7.665 8.182 13.627 8.182 1.854 0 3.657-.337 5.36-.866a19.082 19.082 0 01-12.825 4.09c-9.92-.48-17.485-8.71-17.485-18.192V54c0-2.936 1.253-5.68 3.357-7.749l2.855-2.743 16.684-16.027c2.355-2.31 3.808-5.198 4.259-8.326.15-1.155-.802-2.118-2.005-2.118a1.967 1.967 0 00-1.953 1.685c-.351 2.31-1.453 4.428-3.157 6.112l-3.757 3.61c-1.604-1.973-2.505-4.38-2.455-6.69 0-.289 0-.578.05-.914.551-5.631 5.862-10.06 12.024-10.06 4.309 0 8.166 2.31 9.87 5.872 2.204 4.62 1.453 9.626-2.004 13.043l-9.77 9.337z" fill="#AA0082"/></svg>